<?xml version="1.0" standalone="no"?>
<!DOCTYPE svg PUBLIC "-//W3C//DTD SVG 20010904//EN"
 "http://www.w3.org/TR/2001/REC-SVG-20010904/DTD/svg10.dtd">
<svg version="1.0" xmlns="http://www.w3.org/2000/svg"
 width="640.000000pt" height="640.000000pt" viewBox="0 0 640.000000 640.000000"
 preserveAspectRatio="xMidYMid meet">

<g transform="translate(0.000000,640.000000) scale(0.100000,-0.100000)"
fill="#000000" stroke="none">
<path d="M0 3200 l0 -3200 3200 0 3200 0 0 3200 0 3200 -3200 0 -3200 0 0
-3200z m6120 5 l0 -2915 -2920 0 -2920 0 0 2915 0 2915 2920 0 2920 0 0 -2915z"/>
<path d="M2264 5245 c-426 -77 -754 -390 -839 -801 -35 -172 -28 -456 16 -616
63 -225 211 -422 423 -562 138 -92 271 -152 671 -305 369 -142 503 -213 634
-335 162 -152 221 -311 221 -590 0 -208 -33 -322 -133 -455 l-40 -55 -33 40
c-41 47 -88 133 -116 211 -17 49 -22 88 -26 241 l-4 182 -843 0 -842 0 -7 -46
c-14 -108 1 -328 31 -439 20 -76 90 -227 140 -302 112 -171 327 -340 525 -412
147 -54 162 -56 513 -56 316 0 334 1 415 24 47 12 118 38 159 57 41 19 80 34
88 34 7 0 40 -13 72 -29 32 -17 100 -42 152 -58 l94 -28 335 0 c357 0 371 1
518 56 142 52 288 148 398 261 126 130 199 250 254 417 69 213 62 596 -16 813
-70 193 -199 357 -387 489 -141 99 -268 160 -718 344 -320 131 -364 152 -485
234 -190 127 -293 272 -325 456 -18 105 -7 345 20 420 28 79 85 180 101 180
18 0 75 -105 101 -185 17 -51 23 -101 28 -230 l6 -165 842 -3 841 -2 7 92 c37
516 -283 975 -770 1105 -92 24 -120 26 -343 31 -156 2 -273 0 -325 -8 -106
-15 -234 -53 -319 -96 l-68 -34 -67 33 c-89 44 -179 74 -283 92 -108 19 -512
19 -616 0z m614 -369 c35 -12 50 -22 45 -29 -4 -7 -20 -31 -36 -54 -46 -69
-114 -222 -139 -313 -21 -77 -23 -106 -23 -305 1 -193 3 -231 22 -307 46 -180
113 -305 236 -434 172 -182 324 -265 857 -469 310 -118 447 -184 563 -271 131
-99 215 -206 263 -339 46 -128 57 -429 19 -555 -33 -107 -95 -210 -176 -290
-121 -120 -261 -190 -422 -212 -144 -19 -516 0 -546 28 -2 2 19 36 46 76 133
193 183 369 183 648 0 371 -88 601 -311 815 -172 165 -331 249 -894 475 -373
149 -533 248 -651 401 -102 133 -140 270 -131 484 4 103 10 146 31 211 72 222
266 397 500 450 91 20 492 13 564 -10z m1334 -8 c234 -78 408 -278 454 -520 9
-47 14 -93 11 -102 -6 -15 -53 -16 -469 -14 l-463 3 -3 40 c-5 76 -32 215 -53
277 -26 74 -86 195 -128 258 l-31 45 38 13 c75 27 121 31 342 28 212 -2 229
-3 302 -28z m-1550 -2958 c14 -190 72 -353 182 -513 25 -37 46 -69 46 -71 0
-2 -24 -10 -52 -18 -73 -18 -491 -18 -568 0 -85 21 -228 95 -300 154 -78 66
-136 139 -183 233 -47 94 -84 275 -60 298 3 4 214 6 467 5 l461 -3 7 -85z"/>
</g>
</svg>
